<svg version="1.0" xmlns="http://www.w3.org/2000/svg" width="628" height="368" viewBox="84.80000305175781 46.79999923706055 125.59999084472656 73.60000228881836" preserveAspectRatio="xMidYMid meet" style="">
 <g fill="#ffffff">
  <path d="M149.34 118.15 c-1.56 -0.24 -2.83 -0.90 -3.82 -1.98 -0.85 -0.92 -1.40 -1.94 -1.76 -3.31 -0.37 -1.34 -0.37 -4 0 -5.37 0.71 -2.69 2.47 -4.51 4.93 -5.11 0.85 -0.22 3.23 -0.22 4.08 0 2.34 0.58 4.12 2.39 4.87 4.93 0.19 0.64 0.23 1.16 0.23 2.94 -0.01 2.01 -0.04 2.22 -0.34 3.12 -0.78 2.33 -2.25 3.87 -4.27 4.51 -0.78 0.24 -3.07 0.41 -3.91 0.28z m3.07 -2.85 c1.10 -0.53 1.85 -1.51 2.23 -2.96 0.28 -1.04 0.28 -3.25 -0.01 -4.30 -0.30 -1.14 -0.97 -2.23 -1.57 -2.54 l-0.24 -0.13 0.24 0.30 c0.13 0.16 0.06 0.11 -0.16 -0.12 -0.52 -0.52 -1.18 -0.74 -2.19 -0.74 -2.64 0 -4.18 1.99 -4.18 5.41 0 1.86 0.38 3.18 1.21 4.11 0.46 0.53 1.26 1.07 1.43 0.97 0.07 -0.05 0.12 -0.02 0.12 0.05 0 0.19 0.36 0.24 1.56 0.20 0.79 -0.01 1.27 -0.08 1.57 -0.24z"/>
  <path d="M177.87 118.05 c-0.73 -0.16 -1.51 -0.49 -2.10 -0.91 -0.17 -0.12 -0.36 -0.18 -0.41 -0.13 -0.06 0.05 -0.06 0.02 -0.01 -0.06 0.08 -0.14 -0.38 -0.54 -0.54 -0.44 -0.05 0.02 -0.13 -0.01 -0.18 -0.08 -0.05 -0.10 -0.04 -0.11 0.05 -0.06 0.24 0.14 0.16 -0.04 -0.22 -0.50 -1.16 -1.46 -1.79 -4.57 -1.45 -7.27 0.25 -1.95 0.91 -3.47 2 -4.54 1.28 -1.29 2.81 -1.80 5.20 -1.74 0.83 0.01 1.52 0.07 1.56 0.12 0.04 0.05 0.18 0.11 0.30 0.13 1.46 0.25 3.36 2.30 3.61 3.90 l0.08 0.50 -0.66 0 -0.66 0 -0.16 -0.50 c-0.08 -0.29 -0.25 -0.72 -0.37 -0.96 -0.29 -0.58 -1.04 -1.33 -1.21 -1.22 -0.07 0.05 -0.10 0.04 -0.06 -0.04 0.10 -0.16 -0.88 -0.59 -1.73 -0.77 -0.84 -0.18 -2.54 -0.07 -3.23 0.20 -0.70 0.28 -1.38 0.77 -1.87 1.34 -2.07 2.43 -2.12 7.75 -0.08 10.42 0.37 0.48 1.44 1.22 1.83 1.26 0.17 0.02 0.34 0.08 0.37 0.14 0.13 0.17 1.69 0.29 2.49 0.17 1.87 -0.25 3.33 -1.52 3.93 -3.41 l0.20 -0.65 0.68 0 0.68 0 -0.17 0.58 c-0.53 1.77 -1.76 3.32 -3.20 3.98 -1.44 0.68 -3.18 0.88 -4.71 0.54z"/>
  <path d="M86.33 110.25 l0 -7.61 3.99 0 c4.24 0 5.18 0.08 6.07 0.54 1.14 0.58 2.12 2.03 2.25 3.33 0.16 1.46 -0.53 3 -1.61 3.62 -0.35 0.20 -0.62 0.40 -0.64 0.43 0 0.04 0.26 0.24 0.58 0.43 0.92 0.58 1.13 1.13 1.24 3.33 0.05 0.98 0.10 1.94 0.10 2.11 0.01 0.17 0.14 0.52 0.31 0.76 0.17 0.24 0.30 0.49 0.30 0.56 0 0.07 -0.65 0.10 -1.70 0.08 l-1.70 -0.04 -0.10 -0.36 c-0.06 -0.19 -0.16 -1.25 -0.22 -2.31 -0.18 -3.20 -0.24 -3.26 -3.62 -3.26 l-2.25 0 0 3 0 3 -1.50 0 -1.50 0 0 -7.61z m8.50 -1.25 c0.49 -0.36 0.73 -0.90 0.73 -1.69 0 -1.12 -0.49 -1.81 -1.44 -2.03 -0.30 -0.07 -1.50 -0.13 -2.66 -0.13 l-2.13 0 0 2.11 0 2.10 2.55 -0.04 c2.46 -0.04 2.55 -0.05 2.95 -0.32z"/>
  <path d="M101.68 110.25 l0 -7.61 5.52 0 5.52 0 0 1.32 0 1.32 -4.02 0 -4.02 0 0 1.68 0 1.68 3.72 0 3.72 0 0 1.26 0 1.26 -3.72 0 -3.72 0 0 2.04 0 2.04 4.20 0 4.20 0 0 1.32 0 1.32 -5.70 0 -5.70 0 0 -7.61z"/>
  <path d="M119.06 111.57 l0 -6.29 -2.34 0 -2.34 0 0 -1.32 0 -1.32 6.18 0 6.18 0 0 1.32 0 1.32 -2.34 0 -2.34 0 0 6.29 0 6.29 -1.50 0 -1.50 0 0 -6.29z"/>
  <path d="M128.78 110.25 l0 -7.61 3.99 0 c4.24 0 5.18 0.08 6.07 0.54 1.14 0.58 2.12 2.03 2.25 3.33 0.16 1.46 -0.53 3 -1.61 3.62 -0.35 0.20 -0.62 0.40 -0.64 0.43 0 0.04 0.26 0.24 0.58 0.43 0.92 0.58 1.13 1.13 1.24 3.33 0.05 0.98 0.10 1.94 0.10 2.11 0.01 0.17 0.14 0.52 0.31 0.76 0.17 0.24 0.30 0.49 0.30 0.56 0 0.07 -0.65 0.10 -1.70 0.08 l-1.70 -0.04 -0.10 -0.36 c-0.06 -0.19 -0.16 -1.25 -0.22 -2.31 -0.18 -3.20 -0.24 -3.26 -3.62 -3.26 l-2.25 0 0 3 0 3 -1.50 0 -1.50 0 0 -7.61z m8.50 -1.25 c0.49 -0.36 0.73 -0.90 0.73 -1.69 0 -1.12 -0.49 -1.81 -1.44 -2.03 -0.30 -0.07 -1.50 -0.13 -2.66 -0.13 l-2.13 0 0 2.11 0 2.10 2.55 -0.04 c2.46 -0.04 2.55 -0.05 2.95 -0.32z"/>
  <path d="M168.23 110.25 l0 -7.61 0.66 0 0.66 0 0 7.61 0 7.61 -0.66 0 -0.66 0 0 -7.61z"/>
  <path d="M189.65 112.57 c1.15 -2.93 2.49 -6.35 3 -7.63 l0.91 -2.31 0.77 0.04 0.78 0.04 2.81 7.31 c1.55 4.03 2.84 7.43 2.88 7.59 0.07 0.25 0.04 0.26 -0.56 0.26 l-0.65 0 -0.90 -2.46 -0.90 -2.46 -3.53 0.02 -3.53 0.04 -0.91 2.42 -0.91 2.43 -0.67 0 -0.67 0 2.09 -5.30z m7.48 -1.26 c-0.12 -0.32 -0.80 -2.16 -1.52 -4.08 -0.71 -1.93 -1.33 -3.47 -1.38 -3.42 -0.08 0.08 -2.85 7.45 -2.96 7.84 -0.05 0.20 0.13 0.22 3.02 0.22 l3.07 0 -0.23 -0.56z"/>
  <path d="M159.83 111.93 l0 -0.90 2.52 0 2.52 0 0 0.90 0 0.90 -2.52 0 -2.52 0 0 -0.90z"/>
  <path d="M184.51 112.63 c0.22 -0.02 0.54 -0.02 0.72 0 0.18 0.02 0 0.05 -0.40 0.05 -0.40 0 -0.54 -0.02 -0.32 -0.05z"/>
  <path d="M203.91 108.33 c-2.94 -1.20 -3.23 -5.24 -0.49 -6.82 2.51 -1.45 5.70 0.40 5.70 3.29 0 2.71 -2.72 4.56 -5.20 3.54z m2.89 -0.43 c0.73 -0.35 1.44 -1.21 1.67 -2 0.37 -1.27 0 -2.82 -0.88 -3.65 -1.19 -1.13 -3.35 -1.10 -4.58 0.06 -1.31 1.25 -1.32 3.68 -0.01 4.98 0.96 0.97 2.54 1.22 3.80 0.61z"/>
  <path d="M203.96 104.80 l0 -2.16 0.94 0 c1.65 0.01 2.30 0.30 2.33 1.07 0.02 0.60 -0.24 0.96 -0.83 1.13 l-0.52 0.16 0.60 0.89 c0.34 0.49 0.60 0.94 0.60 1 0 0.05 -0.10 0.08 -0.20 0.08 -0.14 0 -0.43 -0.37 -0.82 -1.02 l-0.60 -1.02 -0.56 0 -0.58 0 0 1.02 c0 0.83 -0.04 1.02 -0.18 1.02 -0.16 0 -0.18 -0.32 -0.18 -2.16z m2.58 -0.41 c0.16 -0.11 0.23 -0.31 0.23 -0.60 0 -0.64 -0.28 -0.78 -1.45 -0.79 l-1 0 0 0.78 0 0.78 1 0 c0.66 0 1.08 -0.06 1.22 -0.17z"/>
  <path d="M149.33 94.62 c-0.59 -0.36 -1.47 -1.49 -2.04 -2.60 -0.29 -0.58 -0.53 -1.12 -0.53 -1.20 0 -0.19 0.37 -0.59 1.14 -1.19 1.32 -1.04 2.23 -1.88 3.78 -3.49 1.06 -1.10 2.16 -2.46 2.16 -2.66 0 -0.06 0.08 -0.18 0.18 -0.26 0.16 -0.13 0.58 -0.83 1.27 -2.11 0.18 -0.34 0.54 -1.25 0.80 -2.04 0.68 -2.07 0.78 -2.42 0.78 -2.66 0 -0.11 0.05 -0.28 0.12 -0.35 0.06 -0.08 0.08 -0.16 0.05 -0.16 -0.04 0 0.01 -0.31 0.10 -0.68 0.19 -0.84 0.44 -2.46 0.47 -3.03 0.01 -0.23 0.05 -0.47 0.08 -0.54 0.06 -0.11 0.04 -1.80 -0.05 -3.54 l-0.02 -0.54 0.66 -0.11 c0.36 -0.06 0.68 -0.14 0.72 -0.19 0.04 -0.04 0.66 -0.14 1.38 -0.23 0.73 -0.08 1.59 -0.20 1.92 -0.26 0.34 -0.05 1.27 -0.19 2.10 -0.32 0.83 -0.12 1.58 -0.25 1.68 -0.30 0.22 -0.08 2.12 -0.31 3.31 -0.40 0.74 -0.05 0.88 -0.02 1.07 0.19 0.12 0.13 0.28 0.24 0.35 0.24 0.07 0.01 0.32 0.17 0.55 0.36 0.23 0.20 0.47 0.36 0.54 0.36 0.08 0 0.26 0.13 0.42 0.30 0.48 0.50 0.83 0.37 1.27 -0.48 0.20 -0.40 0.58 -1.12 0.82 -1.59 0.25 -0.48 0.54 -0.91 0.66 -0.95 0.11 -0.04 0.36 -0.13 0.58 -0.23 0.20 -0.10 0.43 -0.17 0.50 -0.17 0.07 0 0.30 -0.08 0.52 -0.18 0.22 -0.10 0.88 -0.31 1.46 -0.49 0.59 -0.18 1.21 -0.40 1.38 -0.48 0.17 -0.10 0.38 -0.17 0.47 -0.17 0.10 0 0.36 -0.08 0.59 -0.20 0.55 -0.25 0.62 -0.13 0.66 1.10 0.02 1.22 0.04 1.44 0.16 4.32 0.13 3.35 0.11 4.52 -0.10 4.64 -0.10 0.05 -0.24 0.25 -0.32 0.44 -0.19 0.48 -0.67 0.83 -2.22 1.62 -0.71 0.36 -1.34 0.71 -1.41 0.77 -0.08 0.06 -0.49 0.25 -0.92 0.42 -0.43 0.17 -1.07 0.44 -1.40 0.62 -0.35 0.17 -0.67 0.30 -0.72 0.30 -0.12 0 -1.64 0.61 -1.77 0.72 -0.06 0.06 -0.42 0.18 -0.78 0.28 -0.36 0.11 -1.03 0.32 -1.50 0.49 -1.33 0.47 -2.78 0.91 -3.03 0.91 -0.12 0 -0.26 0.05 -0.32 0.11 -0.08 0.08 -3.92 0.49 -4.62 0.49 -0.11 0 -0.41 0.74 -0.82 1.98 -0.20 0.60 -0.56 1.59 -0.80 2.22 -0.48 1.22 -2.01 4.38 -2.29 4.69 -0.10 0.10 -0.17 0.23 -0.17 0.28 0 0.23 -2.16 2.94 -2.90 3.66 -0.59 0.55 -1.99 1.53 -2.61 1.83 -0.23 0.11 -0.67 0.26 -1 0.34 -0.31 0.08 -0.60 0.19 -0.64 0.25 -0.12 0.20 -1.29 0.12 -1.68 -0.12z"/>
  <path d="M176.41 90.94 c-0.73 -0.36 -1.44 -1.02 -2.06 -1.95 -0.80 -1.19 -0.79 -1.25 0.54 -2.55 0.76 -0.73 1.41 -1.53 2.15 -2.59 0.37 -0.55 0.41 -0.60 1.22 -1.83 0.77 -1.16 3.03 -5.74 3.03 -6.14 0 -0.10 0.14 -0.49 0.31 -0.88 0.18 -0.40 0.37 -0.86 0.43 -1.07 0.14 -0.48 0.68 -2.53 0.74 -2.87 0.04 -0.13 0.12 -0.55 0.19 -0.91 0.28 -1.37 0.30 -1.68 0.30 -4.15 0 -1.74 -0.05 -2.58 -0.14 -2.70 -0.07 -0.10 -0.17 -0.42 -0.22 -0.72 -0.07 -0.53 -0.06 -0.55 0.40 -0.96 0.26 -0.23 0.73 -0.60 1.04 -0.83 0.31 -0.23 0.62 -0.47 0.71 -0.54 0.07 -0.06 0.35 -0.28 0.61 -0.48 0.26 -0.19 0.54 -0.41 0.62 -0.49 0.34 -0.32 2.40 -1.85 2.51 -1.85 0.07 0 0.26 0.16 0.44 0.34 0.52 0.53 0.66 2.04 0.73 7.34 0.04 2.40 0 3.85 -0.11 4.86 -0.10 0.79 -0.20 1.76 -0.24 2.16 -0.26 2.60 -1.32 6.75 -2.28 8.99 -0.20 0.48 -1.35 2.81 -1.53 3.12 -0.74 1.24 -1.81 2.69 -2.57 3.50 -0.89 0.94 -2.45 2.19 -2.71 2.19 -0.07 0 -0.24 0.10 -0.37 0.22 -0.14 0.12 -0.47 0.29 -0.73 0.37 -0.26 0.08 -0.64 0.23 -0.84 0.32 -0.40 0.17 -1.25 0.41 -1.44 0.40 -0.06 0 -0.40 -0.14 -0.74 -0.30z"/>
  <path d="M129.53 90.46 c-0.28 -0.28 -0.30 -0.36 -0.23 -0.91 0.08 -0.64 0.67 -1.89 1.20 -2.60 0.40 -0.53 0.38 -0.56 -0.05 -0.65 -0.42 -0.10 -1.27 -0.64 -1.37 -0.88 -0.04 -0.11 -0.13 -0.14 -0.20 -0.10 -0.10 0.05 -0.11 0.04 -0.06 -0.05 0.05 -0.07 0 -0.30 -0.11 -0.49 -0.23 -0.44 -0.24 -1.57 -0.01 -2.09 0.22 -0.50 0.73 -0.98 1.32 -1.22 0.61 -0.26 1.31 -0.16 2.01 0.29 0.89 0.56 1.32 1.81 0.61 1.81 -0.26 0 -0.77 0.56 -0.68 0.78 0.05 0.11 0.23 0.26 0.42 0.37 0.32 0.16 0.40 0.14 1.07 -0.13 0.84 -0.35 1.03 -0.36 1.69 -0.10 0.92 0.36 0.97 1.25 0.16 2.81 -0.47 0.89 -1 1.43 -2.39 2.41 -1.14 0.82 -1.68 1.06 -2.43 1.06 -0.53 0 -0.68 -0.05 -0.95 -0.31z"/>
  <path d="M141.53 87.06 c-1.31 -0.22 -2.81 -1.37 -3.05 -2.31 -0.07 -0.29 -0.18 -0.62 -0.25 -0.76 -0.31 -0.62 0.88 -3.87 1.74 -4.80 0.25 -0.26 0.53 -0.42 0.89 -0.48 0.29 -0.05 0.50 -0.14 0.50 -0.24 0 -0.14 -1.03 -0.64 -2.28 -1.08 -0.92 -0.35 -4.17 -2.06 -4.71 -2.51 -0.31 -0.25 -0.56 -0.42 -0.56 -0.36 0 0.06 -0.08 -0.02 -0.19 -0.17 -0.14 -0.22 -0.17 -0.50 -0.13 -1.44 0.06 -1.24 0.24 -2.77 0.43 -3.86 0.07 -0.36 0.20 -1.12 0.30 -1.68 0.42 -2.31 0.55 -2.97 0.66 -3.27 0.07 -0.18 0.10 -0.40 0.06 -0.49 -0.11 -0.29 0.17 -0.32 0.37 -0.05 0.10 0.16 0.38 0.40 0.64 0.54 0.60 0.37 2.18 1.13 2.47 1.18 0.12 0.04 0.28 0.10 0.36 0.16 0.07 0.06 0.46 0.20 0.85 0.31 0.40 0.11 0.83 0.25 0.96 0.31 0.56 0.26 2.09 0.72 2.37 0.72 0.17 0 0.34 0.05 0.37 0.11 0.04 0.06 0.32 0.14 0.64 0.19 0.32 0.05 0.64 0.13 0.70 0.18 0.07 0.05 0.72 0.19 1.44 0.31 0.73 0.12 1.34 0.25 1.38 0.30 0.04 0.05 0.25 0.11 0.48 0.14 0.23 0.04 1.02 0.17 1.74 0.31 1.19 0.22 3.51 0.49 4.23 0.49 0.18 0 0.26 0.07 0.26 0.24 0 0.13 -0.08 0.24 -0.18 0.24 -0.10 0 -0.18 0.08 -0.18 0.18 0 0.10 0.05 0.18 0.10 0.18 0.06 0 0.10 0.64 0.08 1.41 -0.04 1.61 -0.37 6.32 -0.49 6.68 -0.04 0.13 -0.12 0.54 -0.17 0.90 -0.25 1.62 -0.56 2.87 -0.83 3.19 -0.47 0.60 -1.62 1.76 -2.23 2.27 -0.32 0.26 -0.76 0.62 -0.97 0.82 -0.20 0.18 -0.43 0.32 -0.49 0.32 -0.06 0 -0.24 0.14 -0.41 0.31 -0.42 0.44 -2.35 1.24 -3.51 1.43 -0.71 0.12 -2.83 0.17 -3.38 0.07z m-7.59 -13.41 c-0.12 -0.20 -0.12 -0.19 -0.13 0.04 0 0.28 0.16 0.49 0.22 0.30 0.02 -0.07 -0.01 -0.22 -0.08 -0.34z"/>
  <path d="M116.92 86.93 c-0.35 -0.05 -0.61 -0.18 -0.76 -0.37 -0.12 -0.16 -0.41 -0.48 -0.62 -0.71 -0.48 -0.49 -1.03 -1.29 -1.03 -1.49 0 -0.13 0.58 -0.78 1.88 -2.15 0.58 -0.60 0.67 -0.66 1.08 -0.62 0.38 0.04 0.59 0.18 1.28 0.92 0.53 0.56 0.85 1.02 0.92 1.29 0.08 0.37 0.05 0.47 -0.35 0.96 -0.25 0.30 -0.54 0.67 -0.65 0.84 -0.11 0.17 -0.43 0.55 -0.72 0.85 -0.50 0.54 -0.53 0.55 -1.04 0.47z"/>
  <path d="M121.71 86.01 c-0.28 -0.37 -0.49 -0.72 -0.49 -0.79 0 -0.06 -0.16 -0.35 -0.36 -0.65 -0.19 -0.29 -0.36 -0.60 -0.36 -0.70 0 -0.18 0.89 -1.31 2.18 -2.75 0.36 -0.41 0.47 -0.47 0.65 -0.36 0.26 0.16 1.73 2.99 1.73 3.33 0 0.28 -2.43 2.59 -2.71 2.59 -0.08 0 -0.37 -0.30 -0.64 -0.68z"/>
  <path d="M105.88 80.67 c-1.43 -0.16 -4.10 -0.74 -5.10 -1.13 -0.46 -0.17 -0.96 -0.34 -1.10 -0.37 -0.14 -0.04 -0.34 -0.13 -0.41 -0.23 -0.07 -0.10 -0.22 -0.17 -0.30 -0.17 -0.10 0 -0.17 -0.05 -0.17 -0.10 0 -0.06 -0.20 -0.22 -0.47 -0.36 -0.61 -0.35 -2.01 -1.76 -2.33 -2.36 -0.80 -1.53 -0.89 -2.28 -0.98 -8.63 -0.04 -2.17 -0.10 -5.41 -0.14 -7.19 -0.08 -3.12 -0.08 -4.72 0.01 -5.54 0.05 -0.31 0.43 -0.77 2.13 -2.43 1.14 -1.13 2.59 -2.55 3.23 -3.18 0.62 -0.62 1.20 -1.14 1.26 -1.14 0.07 0 0.22 0.10 0.31 0.22 0.16 0.17 0.23 1.27 0.44 6.62 0.60 14.75 0.55 13.96 0.92 14.21 0.71 0.46 5.05 0.78 7.45 0.55 0.91 -0.08 1.68 -0.24 2.34 -0.47 0.55 -0.19 1.21 -0.38 1.47 -0.43 0.67 -0.12 2.97 -0.83 4.68 -1.45 2.46 -0.89 4.12 -1.95 4.68 -2.99 0.24 -0.44 0.54 -0.54 0.90 -0.31 0.16 0.10 0.18 0.96 0.18 6.58 0 5.60 -0.02 6.50 -0.18 6.65 -0.10 0.10 -0.61 0.35 -1.14 0.55 -0.53 0.20 -1.14 0.46 -1.34 0.55 -1.95 0.85 -3.99 1.44 -6.57 1.91 -0.59 0.11 -1.32 0.25 -1.62 0.32 -1.59 0.36 -6.10 0.53 -8.15 0.31z"/>
  <path d="M128.60 79.72 c-1.02 -0.35 -1.22 -0.48 -1.46 -1.04 -0.14 -0.34 -0.22 -0.64 -0.16 -0.74 0.08 -0.17 0.17 -3.38 0.48 -17.87 0.07 -3.13 0.16 -5.86 0.18 -6.06 0.08 -0.53 0.36 -0.65 1.20 -0.53 0.40 0.06 1.37 0.13 2.16 0.17 2.05 0.10 2.40 0.16 2.75 0.46 l0.31 0.28 -0.24 2.93 c-0.13 1.62 -0.43 5.16 -0.66 7.85 -0.23 2.71 -0.44 5.43 -0.48 6.06 -0.12 2.15 -0.67 7.73 -0.80 8.06 -0.08 0.23 -0.25 0.37 -0.56 0.46 -0.54 0.14 -2.23 0.14 -2.71 -0.01z"/>
  <path d="M106.83 68.31 c-0.56 -0.06 -1.04 -0.16 -1.06 -0.22 -0.04 -0.07 -0.10 -0.07 -0.19 0 -0.11 0.10 -0.22 0.07 -0.38 -0.04 -0.20 -0.16 -0.23 -0.41 -0.31 -2.60 -0.05 -1.33 -0.14 -3.25 -0.23 -4.23 -0.17 -2.36 -0.28 -5.97 -0.18 -6.34 0.07 -0.29 0.36 -0.46 0.64 -0.36 0.08 0.04 0.34 0.32 0.58 0.65 0.65 0.90 3.06 2.34 4.30 2.55 0.64 0.12 1.15 0.65 1.15 1.19 0 0.22 0.04 0.43 0.07 0.48 0.04 0.04 0.08 0.52 0.11 1.07 0.01 0.55 0.10 1.51 0.16 2.13 0.24 2.10 0.38 4.80 0.26 5.11 -0.19 0.49 -0.82 0.66 -2.45 0.68 -0.80 0.01 -1.91 -0.02 -2.47 -0.07z m-1.31 -2.76 c-0.05 -0.73 -0.13 -0.71 -0.13 0.04 0 0.35 0.04 0.60 0.08 0.55 0.05 -0.05 0.07 -0.31 0.05 -0.59z"/>
  <path d="M152.28 67.66 c-0.30 -0.04 -1.32 -0.19 -2.28 -0.36 -0.96 -0.17 -2.25 -0.37 -2.88 -0.47 -0.62 -0.10 -1.15 -0.23 -1.18 -0.29 -0.02 -0.07 -0.12 -0.12 -0.22 -0.12 -0.29 0 -2.36 -0.48 -2.58 -0.60 -0.11 -0.06 -0.41 -0.14 -0.66 -0.19 -0.26 -0.04 -0.52 -0.12 -0.59 -0.17 -0.06 -0.04 -0.36 -0.14 -0.66 -0.23 -0.96 -0.28 -3.54 -1.22 -3.72 -1.38 -0.10 -0.08 -0.36 -0.22 -0.58 -0.29 -0.54 -0.18 -1.58 -0.88 -1.58 -1.04 0 -0.14 0.46 -0.50 0.96 -0.78 1.08 -0.58 4.52 -0.86 6.53 -0.54 0.60 0.10 1.43 0.20 1.86 0.24 0.43 0.04 0.89 0.12 1.02 0.18 0.13 0.05 0.76 0.22 1.38 0.36 1.27 0.30 2.48 0.68 3.48 1.08 0.95 0.37 2.99 1.40 3.20 1.62 0.10 0.10 0.22 0.18 0.25 0.18 0.22 0 1.35 1.19 1.51 1.56 0.16 0.40 0.16 0.44 -0.08 0.73 -0.46 0.54 -1.25 0.67 -3.20 0.50z"/>
  <path d="M166.25 62.64 c-1.40 -1.40 -1.38 -1.33 -0.72 -2.17 0.30 -0.38 0.76 -0.97 1.01 -1.29 0.60 -0.79 0.80 -0.95 1.28 -0.98 0.34 -0.01 0.52 0.10 1.34 0.88 1.18 1.09 1.25 1.34 0.66 2.22 -0.22 0.34 -0.40 0.65 -0.40 0.70 0 0.05 -0.13 0.22 -0.30 0.37 -0.17 0.16 -0.30 0.34 -0.30 0.40 0 0.06 -0.11 0.26 -0.25 0.46 -0.22 0.30 -0.32 0.35 -0.83 0.35 -0.56 0 -0.60 -0.02 -1.50 -0.91z"/>
  <path d="M172.37 62.28 c-0.31 -0.37 -0.55 -0.71 -0.55 -0.76 0 -0.04 -0.17 -0.26 -0.38 -0.49 -0.43 -0.48 -0.49 -1.06 -0.16 -1.39 0.11 -0.12 0.34 -0.40 0.49 -0.64 1.07 -1.59 1.57 -2.18 1.79 -2.10 0.08 0.04 0.44 0.53 0.79 1.09 0.36 0.56 0.77 1.21 0.92 1.44 0.38 0.59 0.35 0.97 -0.17 1.47 -0.23 0.23 -0.77 0.78 -1.18 1.24 -0.42 0.44 -0.82 0.80 -0.89 0.80 -0.07 0 -0.37 -0.30 -0.67 -0.67z"/>
  <path d="M118.76 59.69 c-0.40 -0.07 -1.19 -0.25 -1.76 -0.41 -0.58 -0.16 -1.12 -0.29 -1.21 -0.29 -0.10 0 -0.34 -0.08 -0.52 -0.18 -0.19 -0.10 -0.43 -0.18 -0.54 -0.18 -0.10 0 -0.23 -0.05 -0.30 -0.10 -0.16 -0.14 -1.37 -0.62 -1.57 -0.62 -0.37 0 -3.98 -2.16 -4.94 -2.95 -0.82 -0.67 -2.04 -1.97 -2.28 -2.41 -0.20 -0.40 -0.12 -1 0.16 -1.14 0.42 -0.23 3.90 -0.24 5.22 -0.04 2.72 0.44 3.37 0.59 5.71 1.34 3.11 1.01 5.82 2.41 7.01 3.66 0.67 0.68 1.12 1.47 1.01 1.81 -0.05 0.14 -0.11 0.35 -0.12 0.44 -0.05 0.22 -0.44 0.53 -1.13 0.86 -0.48 0.24 -0.74 0.28 -2.28 0.29 -0.96 0.01 -2.06 -0.02 -2.46 -0.10z"/>
 </g>
</svg>